HIERARCHY
ROOT Hips
{
	OFFSET -3.958830 18.904000 13.208200
	CHANNELS 6 Xposition Yposition Zposition Zrotation Yrotation Xrotation 
	JOINT LHipJoint
	{
		OFFSET 0.000000 0.000000 0.000000
		CHANNELS 3 Zrotation Yrotation Xrotation
		JOINT LeftUpLeg
		{
			OFFSET 1.800000 -1.400000 0.085000
			CHANNELS 3 Zrotation Yrotation Xrotation
			JOINT LeftLeg
			{
				OFFSET 2.215000 -6.000000 0.000000
				CHANNELS 3 Zrotation Yrotation Xrotation
				JOINT LeftFoot
				{
					OFFSET 2.500000 -6.900000 0.000000
					CHANNELS 3 Zrotation Yrotation Xrotation
					JOINT LeftToeBase
					{
						OFFSET 0.200000 -0.500000 1.950000
						CHANNELS 3 Zrotation Yrotation Xrotation
						End Site
						{
							OFFSET 0.000000 0.000000 0.000000
						}
					}
				}
			}
		}
	}
	JOINT RHipJoint
	{
		OFFSET 0.000000 0.000000 0.000000
		CHANNELS 3 Zrotation Yrotation Xrotation
		JOINT RightUpLeg
		{
			OFFSET -1.800000 -1.400000 0.085000
			CHANNELS 3 Zrotation Yrotation Xrotation
			JOINT RightLeg
			{
				OFFSET -2.215000 -6.000000 0.000000
				CHANNELS 3 Zrotation Yrotation Xrotation
				JOINT RightFoot
				{
					OFFSET -2.500000 -6.900000 0.000000
					CHANNELS 3 Zrotation Yrotation Xrotation
					JOINT RightToeBase
					{
						OFFSET -0.200000 -0.500000 1.950000
						CHANNELS 3 Zrotation Yrotation Xrotation
						End Site
						{
							OFFSET 0.000000 0.000000 0.000000
						}
					}
				}
			}
		}
	}
	JOINT LowerBack
	{
		OFFSET 0.000000 0.000000 0.000000
		CHANNELS 3 Zrotation Yrotation Xrotation
		JOINT Spine
		{
			OFFSET -0.087000 1.940000 -0.288900
			CHANNELS 3 Zrotation Yrotation Xrotation
			JOINT Spine1
			{
				OFFSET 0.000000 1.950000 0.060000
				CHANNELS 3 Zrotation Yrotation Xrotation
				JOINT Neck
				{
					OFFSET 0.000000 0.000000 0.000000
					CHANNELS 3 Zrotation Yrotation Xrotation
					JOINT Neck1
					{
						OFFSET 0.000000 1.600000 0.340000
						CHANNELS 3 Zrotation Yrotation Xrotation
						JOINT Head
						{
							OFFSET 0.000000 1.667000 -0.240000
							CHANNELS 3 Zrotation Yrotation Xrotation
							End Site
							{
								OFFSET 0.000000 0.000000 0.000000
							}
						}
					}
				}
				JOINT LeftShoulder
				{
					OFFSET 0.000000 0.000000 0.000000
					CHANNELS 3 Zrotation Yrotation Xrotation
					JOINT LeftArm
					{
						OFFSET 2.700000 1.550000 -0.730000
						CHANNELS 3 Zrotation Yrotation Xrotation
						JOINT LeftForeArm
						{
							OFFSET 5.450000 0.000000 0.000000
							CHANNELS 3 Zrotation Yrotation Xrotation
							JOINT LeftHand
							{
								OFFSET 3.450000 0.000000 0.000000
								CHANNELS 3 Zrotation Yrotation Xrotation
								JOINT LeftHandIndex1
								{
									OFFSET 0.750000 0.000000 0.000000
									CHANNELS 3 Zrotation Yrotation Xrotation
									End Site
									{
										OFFSET 0.000000 0.000000 0.000000
									}
								}
							}
						}
					}
				}
				JOINT RightShoulder
				{
					OFFSET 0.000000 0.000000 0.000000
					CHANNELS 3 Zrotation Yrotation Xrotation
					JOINT RightArm
					{
						OFFSET -2.700000 1.550000 -0.730000
						CHANNELS 3 Zrotation Yrotation Xrotation
						JOINT RightForeArm
						{
							OFFSET -5.450000 0.000000 0.000000
							CHANNELS 3 Zrotation Yrotation Xrotation
							JOINT RightHand
							{
								OFFSET -3.450000 0.000000 0.000000
								CHANNELS 3 Zrotation Yrotation Xrotation
								JOINT RightHandIndex1
								{
									OFFSET -0.750000 0.000000 0.000000
									CHANNELS 3 Zrotation Yrotation Xrotation
									End Site
									{
										OFFSET 0.000000 0.000000 0.000000
									}
								}
							}
						}
					}
				}
			}
		}
	}
}
MOTION
Frames: 14
Frame Time: 0.016667
-0.003290 16.450580 -1.874110 -3.786595 17.061510 10.052858 -15.393909 10.667533 5.462607 14.281226 -7.985492 -52.179232 6.744278 6.327572 43.696607 -0.499647 7.639800 2.025829 0.493060 -0.029110 0.292810 18.499776 -9.496339 3.010851 -26.526079 2.976542 -33.627499 12.857641 -11.626979 32.308778 -0.353840 -6.163379 2.298708 0.184780 0.578180 0.117430 -3.750034 -0.398612 -8.909646 6.056959 -0.931182 36.989235 -11.811759 2.690369 2.180482 4.651618 -0.295357 -8.812602 0.290798 -4.642531 20.699732 7.094000 -7.541030 -17.132170 -21.192543 -6.274158 1.578819 -25.989087 -2.083909 -4.186686 -164.616357 -63.540167 144.436418 -3.705242 3.239566 0.675620 0.223510 -0.330150 0.298670 10.998548 9.213919 6.700797 18.089167 1.748157 -6.262865 174.703341 54.797895 153.544789 1.541876 -1.914180 -0.487580 0.527180 0.049030 -0.289000 
-0.039660 16.374430 -1.905660 -3.635740 18.341251 8.181509 -15.401278 10.788907 5.432152 13.427263 -8.068337 -51.953010 8.136228 5.852788 45.545252 -0.397610 7.815403 1.939795 0.539560 0.004150 0.352070 18.472286 -9.522962 2.967148 -27.206671 3.313657 -32.346077 13.136099 -12.215741 34.012212 -0.445619 -6.482090 2.154789 0.170570 0.481360 0.142930 -3.729282 -0.556462 -8.948482 6.995053 -1.101254 39.574290 -11.937254 3.146653 1.292392 4.829507 -0.485785 -9.011903 -0.296827 -5.565905 21.926319 6.427280 -7.904520 -17.003000 -22.638352 -8.321474 2.419758 -22.877534 -0.478417 -4.478878 -158.542159 -62.272487 133.526960 -3.665789 3.319438 0.685060 0.169230 -0.278230 0.289250 12.031671 11.693811 6.311965 11.128370 -0.987594 -8.549851 166.370852 59.472444 142.264966 1.575919 -1.868015 -0.425680 0.437830 0.000320 -0.297980 
-0.081500 16.278850 -1.898380 -3.165639 18.677717 6.655105 -15.406299 10.883551 5.319681 12.627218 -7.713104 -51.495811 9.444325 5.697296 47.844625 -0.218106 8.049463 1.847904 0.673410 0.187470 0.421860 18.465618 -9.500657 3.024089 -28.044456 3.797032 -32.438513 12.831622 -13.052130 37.561709 -0.602453 -7.022703 1.976613 0.225680 0.379040 0.131200 -3.714215 -0.645665 -8.998882 6.921566 -0.808314 40.006786 -11.485569 3.349822 1.131238 4.732333 -1.031279 -8.804431 -1.557137 -5.125166 23.877865 6.671940 -7.980600 -16.678930 -23.017623 -9.278434 3.588739 -22.191507 0.998917 -4.335751 -154.689676 -60.046662 124.915633 -3.576637 3.448364 0.645480 0.104590 -0.212240 0.343670 12.643686 13.629747 4.666287 5.477507 1.683462 -9.119355 149.619290 62.997238 120.624049 1.687126 -1.734241 -0.322790 0.371350 -0.133100 -0.259910 
-0.119650 16.186940 -1.855920 -2.536007 19.011033 3.911971 -15.380583 11.137027 5.026548 11.569358 -7.055315 -49.451948 11.152434 5.300057 49.751705 -0.069620 8.257252 1.784406 0.692010 0.234060 0.416210 18.447337 -9.625024 3.073413 -29.070437 4.379486 -31.410154 12.628872 -14.141949 41.671098 -0.772410 -7.705100 1.777091 0.212080 0.330640 0.107700 -3.748326 -0.687001 -8.988726 6.986821 -0.583329 41.084600 -11.423021 3.627308 1.411007 4.640762 -1.627199 -9.304130 -3.032297 -4.776295 26.423545 7.242740 -8.596750 -16.351240 -22.339983 -10.269224 4.748921 -23.173005 2.676840 -4.861831 -147.695603 -58.551788 111.250406 -3.524331 3.481298 0.644940 0.057020 -0.169260 0.371050 12.188909 15.635717 4.286513 3.045592 3.276534 -9.719766 138.037786 63.774717 104.892879 1.839063 -1.548178 -0.281400 0.349790 -0.188810 -0.229980 
-0.175160 16.099060 -1.790110 -2.059390 19.510143 0.797303 -15.372512 11.471813 4.737437 10.837769 -6.159199 -47.261465 13.017724 4.864128 51.703307 0.097316 8.498654 1.708453 0.704730 0.269500 0.435870 18.391785 -9.820684 3.034105 -29.180342 5.110955 -29.653602 11.731349 -14.761902 45.744709 -0.937686 -8.250260 1.626951 0.186210 0.263730 0.077330 -3.720787 -0.763546 -8.949154 6.942933 0.304932 42.010730 -10.704645 4.678290 1.774280 4.403569 -1.624274 -10.111786 -3.718991 -5.304083 29.651510 7.884270 -9.735800 -16.214550 -20.897267 -11.020018 5.184668 -24.084705 2.773744 -5.056374 -133.685345 -56.335497 88.029163 -3.456880 3.518155 0.653940 -0.003810 -0.112330 0.380090 11.262056 16.982684 5.103028 3.050462 3.109455 -9.750317 132.767337 61.956093 93.884842 1.987863 -1.569363 -0.239120 0.332530 -0.246520 -0.208570 
-0.251010 16.025980 -1.691060 -1.953083 20.156204 -3.016039 -15.339028 11.876269 4.376225 10.870664 -4.804622 -44.248847 14.778743 4.405608 53.171818 0.217007 8.727067 1.606229 0.678260 0.226590 0.470870 18.322377 -10.205972 2.917645 -28.094537 5.951683 -26.689895 10.387429 -14.991552 49.485802 -1.098218 -8.684481 1.500132 0.113450 0.176740 0.090320 -3.743342 -0.608249 -8.850833 7.330533 1.316680 42.520470 -10.584909 6.113210 2.809768 4.351796 -0.017253 -11.441816 -1.801841 -6.505047 34.139375 7.726140 -10.151870 -15.940760 -19.734231 -13.037600 5.985212 -24.113899 3.104280 -5.775182 -126.340261 -54.031026 75.148311 -3.399605 3.536433 0.701730 -0.052500 -0.047100 0.336970 10.182155 18.376232 6.685968 7.298247 2.501411 -10.653769 134.054506 60.979285 92.224779 2.024832 -1.573290 -0.201770 0.275190 -0.252600 -0.233720 
-0.298960 15.949550 -1.569190 -2.190875 20.796949 -6.823363 -15.267209 12.238010 3.996085 11.167224 -3.526359 -40.982829 16.739451 3.620087 54.073225 0.313450 8.867755 1.548325 0.693140 0.236430 0.498320 18.286834 -10.675072 2.774881 -26.799160 6.389349 -23.222334 8.840880 -15.013532 52.590963 -1.239239 -9.053972 1.406309 0.093070 0.122900 0.087860 -3.890580 -0.258678 -8.717357 8.657331 1.821409 41.771272 -10.823177 7.092351 3.997158 4.126565 1.206376 -12.039174 -0.151012 -7.030031 38.394714 8.407490 -10.648580 -14.933800 -19.868663 -14.181974 6.284778 -23.487017 2.890363 -5.890579 -124.603157 -52.022368 70.411387 -3.338949 3.565545 0.720190 -0.085390 -0.011090 0.330900 10.718842 18.782646 7.534101 10.913368 3.169516 -10.578725 138.233887 59.409371 94.774394 2.021817 -1.658807 -0.172800 0.240400 -0.280090 -0.240860 
-0.356520 15.888630 -1.435640 -2.391160 20.899602 -10.855332 -15.210689 12.691906 3.570311 12.368833 -1.829774 -37.085583 17.791546 3.385768 54.651242 0.416397 8.975590 1.513114 0.743490 0.292130 0.569120 18.226398 -11.112070 2.635559 -25.307518 6.838317 -18.976484 7.591050 -14.829328 54.959248 -1.392284 -9.305150 1.356626 0.094660 0.058640 0.072080 -3.974720 -0.076882 -8.556989 9.622063 2.655633 40.882975 -10.184332 8.230992 5.449883 3.746592 1.731438 -12.571158 0.338260 -7.249481 43.442746 8.752900 -11.089960 -14.603840 -19.999218 -14.978033 6.478697 -22.610914 3.008274 -6.182033 -121.109197 -50.304540 64.247655 -3.252182 3.550150 0.745220 -0.138640 0.055160 0.342640 11.664135 19.473916 8.293928 14.208206 4.443985 -10.122342 141.993869 57.310728 96.217343 2.055001 -1.736890 -0.140320 0.239660 -0.344470 -0.239200 
-0.398740 15.848440 -1.301130 -2.782773 21.865078 -14.657687 -15.172202 13.105432 3.180960 13.197153 -0.654644 -33.314231 19.668860 2.331267 53.958626 0.396572 8.917138 1.543010 0.762540 0.310230 0.611960 18.154575 -11.537788 2.488303 -24.056062 6.676981 -13.985646 6.713990 -14.765420 55.977328 -1.506144 -9.460132 1.357949 0.113820 0.041410 0.041190 -4.045795 0.099524 -8.372895 10.573294 3.349043 39.135318 -9.348371 9.032023 7.140260 3.680093 2.988629 -13.030585 2.713821 -8.125219 48.488104 8.120860 -11.001470 -13.895180 -21.044969 -15.762822 6.757873 -22.549705 3.640259 -6.456145 -119.289292 -49.196645 60.771614 -3.217082 3.458852 0.806540 -0.154470 0.094800 0.355050 12.914579 19.511445 8.885443 18.155576 5.511667 -9.495145 143.418009 55.670893 95.122169 2.069551 -1.736199 -0.179030 0.295790 -0.370270 -0.263920 
-0.426190 15.831620 -1.171640 -3.730893 22.878730 -18.572535 -15.096741 13.428122 2.779302 14.497054 0.409094 -29.251733 21.122859 1.377496 52.452751 0.368996 8.713079 1.596481 0.803340 0.370910 0.657190 18.139066 -11.963388 2.377043 -22.629285 6.160086 -8.635677 6.057555 -14.632380 55.846604 -1.597706 -9.476490 1.391965 0.142090 0.005540 0.025030 -4.269299 0.427361 -8.171046 12.828214 3.341415 37.150022 -8.869802 9.195146 9.630516 3.745684 3.514469 -13.060137 4.039220 -8.963440 53.162382 8.286320 -11.170950 -14.820580 -22.015081 -15.965295 6.821987 -23.182526 3.609233 -6.675215 -120.731742 -49.861364 62.851273 -3.203268 3.398542 0.836980 -0.182800 0.141370 0.348950 13.925777 19.108469 9.010253 21.824791 6.977445 -8.992825 145.744680 54.922306 96.953629 2.075083 -1.702355 -0.169330 0.333820 -0.385670 -0.273660 
-0.451450 15.846340 -1.081340 -4.553072 24.078305 -22.277888 -15.052904 13.668823 2.446167 15.394326 1.147683 -25.695909 22.458993 0.475405 50.943013 0.343492 8.516220 1.636268 0.883570 0.445980 0.738710 18.120231 -12.255701 2.333115 -21.804994 5.528498 -3.177559 6.250868 -14.759142 54.525862 -1.684065 -9.448850 1.409096 0.176920 -0.069920 0.042610 -4.438494 0.666341 -7.997006 14.658761 3.373767 35.722823 -8.230191 9.216318 11.987176 4.135001 3.859066 -13.225919 5.483456 -10.106353 57.233560 8.110430 -11.452640 -15.831930 -23.785580 -16.379917 7.068946 -25.088114 4.011649 -7.203667 -122.038789 -50.816612 64.957729 -3.163210 3.394675 0.876690 -0.228720 0.203030 0.341730 15.190493 19.392112 9.259331 25.015910 8.275255 -9.130688 148.066742 55.120769 99.931471 2.071403 -1.686149 -0.133530 0.316230 -0.420640 -0.294720 
-0.497150 15.905770 -1.027910 -5.436312 24.728362 -26.039171 -14.973007 13.859340 2.155625 16.657168 1.938053 -22.299005 23.360162 -0.077160 49.137370 0.318680 8.288819 1.698660 0.880970 0.461350 0.720890 18.149403 -12.532681 2.331739 -20.343835 4.863941 2.062403 5.689400 -14.144831 52.659283 -1.718506 -9.245456 1.511119 0.168230 -0.084120 0.031690 -4.712588 0.954260 -7.867845 17.466346 2.969314 35.633894 -8.585125 9.275262 14.277946 4.193969 3.087309 -14.017900 4.285114 -9.854271 62.173536 10.467150 -12.412240 -17.426930 -25.724676 -18.035333 7.541482 -26.204322 4.317381 -8.246835 -123.629990 -52.427460 67.767645 -3.151284 3.314381 0.920830 -0.269690 0.242170 0.329900 17.233056 21.523381 10.738901 27.197810 7.650759 -10.170949 154.675085 54.855264 108.537980 2.030377 -1.620533 -0.123550 0.349530 -0.397190 -0.287010 
-0.551480 15.986330 -0.979450 -6.519740 25.239824 -29.148840 -14.894481 13.903961 1.921626 18.319395 2.797595 -19.878143 23.578371 -0.109127 47.347783 0.293221 8.027188 1.755532 0.936270 0.533510 0.685190 18.225710 -12.712310 2.372786 -18.442097 4.086994 6.604504 5.083271 -13.345162 50.401121 -1.752457 -9.027475 1.597586 0.195240 -0.105590 0.037410 -5.023976 1.306552 -7.774172 20.119323 2.522406 34.668218 -8.477309 8.881944 16.811273 4.140849 1.173472 -14.380635 0.927974 -7.803824 67.150042 14.714690 -13.862380 -18.710420 -26.798345 -18.471087 7.814095 -29.177094 4.540955 -9.499781 -121.773877 -54.289646 67.166883 -3.087636 3.324306 0.952710 -0.327750 0.275790 0.361640 18.838403 23.334291 11.516052 28.298626 8.955708 -10.410676 158.936598 54.780022 114.800683 1.991903 -1.638150 -0.085310 0.334030 -0.408690 -0.254980 
-0.614580 16.090200 -0.930370 -7.025159 26.507222 -31.022583 -14.892555 13.881838 1.784674 18.832804 3.215844 -18.929146 24.101463 -0.334596 45.747967 0.222735 7.864747 1.811857 0.909010 0.502490 0.636920 18.248868 -12.768544 2.426226 -17.330276 3.005316 10.626935 5.104966 -12.809284 46.736348 -1.707062 -8.738883 1.709753 0.197890 -0.052930 0.012490 -5.162541 1.508535 -7.712197 20.619409 2.918980 33.190916 -7.013583 8.670503 18.734038 4.057308 -0.278297 -14.072257 -0.976956 -6.671729 70.078760 17.226960 -14.848310 -19.028950 -28.215310 -17.733936 7.575404 -32.285694 4.023229 -9.649515 -122.119594 -55.852365 69.450510 -3.122956 3.249597 0.971020 -0.330860 0.246770 0.357030 20.885260 24.057987 11.551049 29.483262 11.351779 -10.655348 160.091797 56.776685 119.279621 1.943737 -1.546172 -0.122170 0.389510 -0.360520 -0.246170 
